<?xml version="1.0" encoding="UTF-8" standalone="no"?>
<svg
   xmlns:dc="http://purl.org/dc/elements/1.1/"
   xmlns:cc="http://creativecommons.org/ns#"
   xmlns:rdf="http://www.w3.org/1999/02/22-rdf-syntax-ns#"
   xmlns:svg="http://www.w3.org/2000/svg"
   xmlns="http://www.w3.org/2000/svg"
   xmlns:sodipodi="http://sodipodi.sourceforge.net/DTD/sodipodi-0.dtd"
   xmlns:inkscape="http://www.inkscape.org/namespaces/inkscape"
   width="21.161526"
   height="21.643574"
   viewBox="0 0 21.161525 21.643574"
   version="1.1"
   id="svg4568"
   sodipodi:docname="logo.svg"
   inkscape:version="0.92.3 (2405546, 2018-03-11)">
  <metadata
     id="metadata4574">
    <rdf:RDF>
      <cc:Work
         rdf:about="">
        <dc:format>image/svg+xml</dc:format>
        <dc:type
           rdf:resource="http://purl.org/dc/dcmitype/StillImage" />
        <dc:title></dc:title>
      </cc:Work>
    </rdf:RDF>
  </metadata>
  <defs
     id="defs4572" />
  <sodipodi:namedview
     pagecolor="#ffffff"
     bordercolor="#666666"
     borderopacity="1"
     objecttolerance="10"
     gridtolerance="10"
     guidetolerance="10"
     inkscape:pageopacity="0"
     inkscape:pageshadow="2"
     inkscape:window-width="1533"
     inkscape:window-height="845"
     id="namedview4570"
     showgrid="false"
     inkscape:zoom="5.0156251"
     inkscape:cx="63.747143"
     inkscape:cy="10.810669"
     inkscape:window-x="67"
     inkscape:window-y="27"
     inkscape:window-maximized="1"
     inkscape:current-layer="svg4568"
     fit-margin-top="0"
     fit-margin-left="0"
     fit-margin-right="0"
     fit-margin-bottom="0" />
  <flowRoot
     xml:space="preserve"
     id="flowRoot4935"
     style="font-style:normal;font-variant:normal;font-weight:normal;font-stretch:normal;font-size:40px;line-height:1.25;font-family:Raleway;-inkscape-font-specification:Raleway;letter-spacing:0px;word-spacing:0px;fill:#000000;fill-opacity:1;stroke:none"
     transform="translate(-98.39718,-127.77786)"><flowRegion
       id="flowRegion4937"><rect
         id="rect4939"
         width="9.8686552"
         height="196.24525"
         x="144.64629"
         y="-84.59903" /></flowRegion><flowPara
       id="flowPara4941" /></flowRoot>  <path
     style="fill:#deaa87;fill-opacity:1;stroke:none;stroke-width:0.03542043;stroke-miterlimit:4;stroke-dasharray:none;stroke-opacity:1"
     d="m 10.699752,20.285254 c 0.57156,-0.42702 1.61204,-1.32343 1.768,-1.52317 0.051,-0.0653 0.16356,-0.28054 0.25019,-0.47835 0.0866,-0.1978 0.29131,-0.55112 0.45488,-0.78516 0.38508,-0.55106 0.39979,-0.58511 0.27239,-0.63057 -0.054,-0.0193 -0.25374,-0.0226 -0.44388,-0.007 -0.3158,0.0253 -0.41522,0.0582 -1.14944,0.37985 l -0.80375,0.35209 -0.41007,0.44915 c -0.8307698,0.90992 -1.6280798,1.31411 -2.5084198,1.27168 -0.42054,-0.0203 -1.00719,-0.25439 -1.23358,-0.49226 -0.15775,-0.16572 -0.17129,-0.19358 -0.15291,-0.31395 0.0414,-0.27342 0.25886,-0.33978 1.12262,-0.34251 0.66833,-0.002 0.95955,-0.0888 1.38172,-0.41114 0.35587,-0.27172 0.40512,-0.39275 0.26937,-0.66184 -0.16934,-0.33573 -0.3436,-0.49569 -0.76599,-0.70331 -0.50775,-0.24957 -0.59106,-0.31709 -0.58165,-0.47139 0.016,-0.26261 0.2798,-0.41914 0.68204,-0.40471 0.37192,0.0133 0.98659,0.41308 1.3036898,0.84782 0.0894,0.12254 0.19234,0.23782 0.2287,0.2562 0.048,0.0242 0.25575,-0.0547 0.75613,-0.28711 1.21176,-0.56239 1.74354,-0.65734 2.435,-0.43306 0.2259,0.0733 0.44924,0.11528 0.4963,0.0934 0.0508,-0.0237 0.14898,-0.22483 0.24193,-0.49593 0.18049,-0.52645 0.16797,-0.85857 -0.0446,-1.18268 -0.37067,-0.56518 -0.37768,-0.58355 -0.30221,-0.78667 0.15993,-0.43013 0.75401,-0.45005 1.10824,-0.0372 0.0888,0.10342 0.23556,0.31353 0.32629,0.46683 0.21408,0.36191 0.22318,0.36912 0.48559,0.3895 0.48165,0.0374 1.11417,-0.30711 1.54721,-0.84266 0.30063,-0.3718 0.40792,-0.64767 0.61556,-1.58278 0.068,-0.30617 0.15738,-0.61388 0.19865,-0.6838 0.2885,-0.48882 0.32892,-0.78364 0.13679,-0.99779 -0.0949,-0.10574 -0.19977,-0.1426 -0.55159,-0.19374 -0.76656,-0.11142 -0.86099,-0.10402 -1.29437,0.10154 -0.39683,0.1882 -0.39526,0.18637 -1.14689,0.94492 -0.20682,0.20856 -0.35824,0.31569 -0.68488,0.48458 -0.5518,0.28534 -0.85029,0.33858 -1.75355,0.31282 -0.96338,-0.0275 -1.44913,-0.20332 -2.13782,-0.77403 -0.42179,-0.34953 -0.49349,-0.66838 -0.18286,-0.81311 0.11512,-0.0536 0.26481,-0.035 0.80634,0.10053 1.00359,0.25112 1.17658,0.28178 1.69308,0.30004 0.3856,0.0136 0.53403,-0.005 0.78359,-0.0968 0.24898,-0.0918 0.32317,-0.13788 0.38771,-0.24066 0.0752,-0.11963 0.0718,-0.14037 -0.0565,-0.35378 -0.19042,-0.3165799 -0.46332,-0.5959599 -0.65685,-0.6724699 -0.0936,-0.037 -0.30153,-0.0488 -0.48483,-0.0276 -0.4402,0.0511 -0.58705,0.0133 -0.67411,-0.1736 -0.24521,-0.52627 0.71516,-1.08501 1.42781,-0.8307 0.46705,0.16668 0.99101,0.61651 1.17297,1.00704 0.0409,0.0877 0.0976,0.13887 0.157,0.14162 0.0512,0.002 0.38552,-0.12193 0.74294,-0.27622 0.78298,-0.33789 1.03082,-0.37063 1.90466,-0.25193 0.86871,0.11805 1.18479,0.25217 1.43934,0.61077 0.23395,0.3295 0.31722,0.31647 0.8075,-0.1265 0.50079,-0.45248 0.80336,-0.94136 0.79826,-1.28978 -0.003,-0.20244 -0.0136,-0.22358 -0.4391,-0.87282 -0.49334,-0.75281 -0.63184,-0.91254 -1.13268,-1.30639 -0.73883,-0.58101 -1.09477,-0.79124 -1.46989,-0.86815 -0.21485,-0.0441 -0.39612,-0.0513 -0.46506,-0.0186 -0.24547,0.11657 -1.29641,0.80374 -1.36271,0.89116 -0.11239,0.14824 -0.64954,0.60043 -0.95512,0.80414 -0.32328,0.21549 -0.73081,0.35043 -1.16984,0.38634 -0.6339,0.0523 -1.51147,-0.1942 -2.21085,-0.62099 -0.51645,-0.31516 -0.8468,-0.41275 -1.40174,-0.41408 -0.3270398,-7.8e-4 -0.4495498,-0.0229 -0.5052498,-0.091 -0.22172,-0.2713 -0.11252,-0.52054 0.3123198,-0.71299 0.55701,-0.25181 1.03104,-0.19783 2.74588,0.31507 0.7876,0.23557 1.0228,0.22732 1.57327,-0.0551 0.30679,-0.15739 0.48137,-0.28761 0.92684,-0.69123 0.30188,-0.27352 0.63604,-0.55185 0.74259,-0.61852 0.27606,-0.17276 0.2507,-0.26127 -0.10566,-0.36885 -0.42114,-0.12713 -1.05835,-0.12134 -1.54512,0.014 -0.92386,0.25695 -1.53773,0.0585 -1.33616,-0.4318499 0.0396,-0.0963 0.14759,-0.23957 0.23995,-0.31826 0.14919,-0.1271 0.23679,-0.15997 0.78468,-0.29434 0.33924,-0.0831 0.77291,-0.15794 0.96374,-0.16614 0.85193,-0.0366 1.99037,0.34817 2.34585,0.7929 0.29122,0.36435 0.29181,0.36472 0.60013,0.38055 0.16382,0.008 0.46195,0.0662 0.66253,0.1284699 0.31144,0.0967 0.44412,0.17629 0.9088,0.54542 0.29927,0.23773 0.60047,0.49509 0.66935,0.57193 0.15463,0.17251 0.33703,0.24925 0.45824,0.19277 0.0581,-0.0271 0.1614,-0.23092 0.28118,-0.55468 0.14558,-0.39352 0.18176,-0.56181 0.1564,-0.72764 -0.045,-0.2940099 -0.46713,-1.1761299 -0.66393,-1.3873199 -0.17456,-0.18733 -1.27558,-0.8633701 -1.50633,-0.9249201 -0.0854,-0.0228 -0.30744,-0.0308 -0.49341,-0.0177 -0.57272,0.0401 -0.86834,-0.16474 -1.28337,-0.88938991 -0.25188,-0.43973 -0.36759,-0.53373 -0.82146,-0.66717 -0.40376,-0.11872 -1.65079,-0.16728 -2.03165,-0.0791 -0.13304,0.0308 -0.5294,0.17529 -0.8808,0.32114 -0.72452,0.30062 -1.06756,0.51517 -1.34341,0.83989991 -0.0981,0.11553 -0.23819,0.2381 -0.3113,0.27244 -0.0731,0.0344 -0.62003,0.11701 -1.21535,0.1837 -1.3093798,0.14669 -1.5456798,0.21629 -2.6095898,0.7686901 -0.73642,0.3824 -0.76691,0.40289 -0.97167,0.65481 -0.11624,0.14308 -0.23488,0.32984 -0.26359,0.41512 -0.0506,0.15033 -0.0461,0.16464 0.14909,0.4698599 0.13242,0.20703 0.27823,0.37198 0.42599,0.48183 0.49463,0.36778 0.55961,0.42888 0.63291,0.59526 0.14368,0.3273 -0.002,0.63526 -0.34533,0.72585 -0.13051,0.0344 -0.26236,0.0126 -0.52263,-0.0867 -0.62602,-0.2389 -1.0003,-0.58693 -1.28436,-1.19429 -0.14723,-0.3148 -0.17887,-0.35526 -0.31679,-0.40445 -0.09,-0.0321 -0.20244,-0.0316 -0.27258,0.001 -0.18761,0.088 -0.98472,0.75254 -1.33763,1.11514 -0.29948,0.3077 -0.65887,0.7773 -0.63375,0.8281 0.006,0.0124 0.20858,-0.018 0.44992,-0.0675 0.54573,-0.11187 0.96502,-0.10314 1.18021,0.0246 0.21964,0.13037 0.2731,0.26518 0.19178,0.4838 -0.0842,0.2265 -0.28394,0.32911 -0.94606,0.48614 -0.25195,0.0597 -0.7449,0.20915 -1.09548,0.33204 -0.35059,0.12287 -0.69845,0.22813 -0.77304,0.23391 -0.25738,0.0199 -0.38254,0.11447 -0.49421,0.37356 -0.0582,0.13488 -0.17647,0.34456 -0.26294,0.46592 -0.08647,0.12137 -0.285652,0.54827 -0.4426079,0.94872 -0.15696103,0.40043 -0.34298703,0.8497999 -0.41339103,0.9985999 -0.200102,0.42292 -0.06399,0.42434 0.51675003,0.005 0.5268889,-0.38012 1.2824289,-0.5722599 1.8157789,-0.4617199 0.48099,0.0997 0.62715,0.3636999 0.27956,0.5050599 -0.72131,0.29339 -1.23491,0.5595 -1.65067,0.85526 -0.247205,0.17586 -0.67141393,0.44648 -0.94271093,0.60134 -0.271293,0.15486 -0.530592,0.32709 -0.576261,0.38264 -0.06301,0.0767 -0.08442,0.33464 -0.0889200059,1.07 -0.006799994,1.10717 0.0238800059,1.34004 0.25401500594,1.92983 0.156984,0.40232 0.173448,0.42771 0.31238,0.48225 0.231453,0.0908 0.53950803,0.047 0.83977393,-0.11957 0.189233,-0.10494 0.411343,-0.30065 0.813893,-0.71717 0.73628,-0.7618 0.82351,-0.76399 0.77272,-0.0195 -0.0518,0.7591 -0.27882,1.204 -0.85114,1.66788 -0.18213,0.14764 -0.32106,0.22406 -0.53843,0.29633 -0.16113,0.0536 -0.37087,0.1312 -0.4661579,0.1724 l -0.17313503,0.0752 0.29023893,0.65384 c 0.197974,0.44598 0.314544,0.66514 0.366604,0.68938 0.1,0.0465 0.26701,-0.0345 0.69613,-0.33803 0.30014,-0.21221 0.41854,-0.27113 0.79993,-0.39786 0.54249,-0.18039 0.88303,-0.19418 1.2815,-0.052 0.4048,0.14446 0.69846,0.40043 0.81115,0.70705 0.10221,0.27812 0.0549,0.48977 -0.14048,0.62902 -0.18948,0.13506 -0.38932,0.10506 -0.63721,-0.0955 -0.34724,-0.28097 -0.44403,-0.27943 -1.05353,0.0168 -0.68342,0.33211 -0.94694,0.49715 -0.94094,0.58919 0.003,0.0405 0.19672,0.23134 0.43127,0.42406 0.23455,0.19272 0.59057,0.49348 0.79114,0.66835 0.47605,0.41506 0.89172,0.66128 1.41311,0.83706 0.51419,0.17334 0.98971,0.24007 1.85083,0.2597 l 0.65332,0.0149 0.76784,-0.25946 c 1.35718,-0.45862 1.7301298,-0.63272 2.3540898,-1.09905 z m -1.5208098,-6.15676 c -1.03792,-0.0637 -0.98302,-0.0812 -1.17664,0.37441 -0.12349,0.2906 -0.3384,0.59883 -0.50243,0.72062 -0.0859,0.0637 -0.20107,0.0937 -0.38487,0.10011 -0.59375,0.0205 -0.68907,-0.28292 -0.3164,-1.00712 0.23219,-0.45118 0.23382,-0.72957 0.007,-1.2161 -0.17254,-0.3703 -0.17284,-0.37063 -0.30168,-0.34032 -0.66838,0.15723 -1.8691,0.20416 -2.43339,0.0951 -0.30016,-0.058 -0.6769,-0.2646 -0.74318,-0.40754 -0.068,-0.14673 -0.004,-0.43945 0.12673,-0.58188 0.18612,-0.20233 0.3906,-0.23704 1.24147,-0.21091 0.87736,0.027 1.24407,-0.0138 1.3811,-0.15344 0.10099,-0.10299 0.22455,-0.56032 0.2789,-1.03256 0.0347,-0.30176 0.033,-0.30874 -0.13095,-0.53733 -0.0913,-0.1273799 -0.25425,-0.2917299 -0.36193,-0.3652299 -0.16319,-0.11139 -0.26282,-0.13372 -0.59819,-0.1341 -0.69008,-7.8e-4 -0.92785,-0.0959 -0.91147,-0.36475 0.0154,-0.25252 0.72206,-0.59947 1.20736,-0.59277 0.35243,0.005 0.59535,0.10867 1.00643,0.43007 0.17775,0.13897 0.35109,0.24936 0.38519,0.24532 0.0341,-0.004 0.15052,-0.0702 0.25871,-0.14691 0.27514,-0.19516 0.80365,-0.39033 1.15265,-0.42568 0.61415,-0.0622 1.4321,0.11246 1.55287,0.33162 0.0998,0.18101 -0.0317,0.34557 -0.31212,0.3906 -0.11476,0.0184 -0.45541,0.10352 -0.75705,0.18914 -0.96382,0.27352 -1.1812,0.5373399 -1.33029,1.6147199 l -0.0775,0.56024 0.15988,0.23113 c 0.0879,0.12713 0.24856,0.43285 0.35703,0.67938 0.10829,0.24662 0.22331,0.46508 0.25492,0.48579 0.0318,0.0206 0.2042,0.0412 0.38309,0.0457 0.8348,0.021 1.6875898,0.30745 1.8308598,0.61495 0.0713,0.15292 -0.0434,0.41045 -0.19596,0.4403 -0.0684,0.0133 -0.5409998,-10e-4 -1.0502598,-0.0325 z"
     id="path4578"
     inkscape:connector-curvature="0" />
</svg>
